<svg width="515.302" height="74.224" viewBox="0 0 515.302 74.224" xmlns="http://www.w3.org/2000/svg"><g id="svgGroup" stroke-linecap="round" fill-rule="evenodd" font-size="9pt" stroke="#000" stroke-width="0.1pt" fill="#00000000" style="stroke:#000;stroke-width:0.1pt;fill:#00000000"><path d="M 259 72.504 L 259 1.904 L 246 1.904 L 246 51.804 L 245.8 51.804 A 12.298 12.298 0 0 0 245.213 50.417 C 244.412 48.757 242.966 46.276 240.92 43.153 A 160.873 160.873 0 0 0 238.8 40.004 L 212.7 1.904 L 199.7 1.904 L 199.7 72.504 L 212.8 72.504 L 212.8 24.104 L 213 24.104 A 21.345 21.345 0 0 0 213.479 25.259 C 214.158 26.785 215.367 29.158 217.244 32.079 A 71.981 71.981 0 0 0 219.3 35.104 L 246.1 72.504 L 259 72.504 Z M 397.6 72.504 L 397.6 1.904 L 383.5 1.904 L 383.5 29.404 L 352.7 29.404 L 352.7 1.904 L 338.6 1.904 L 338.6 72.504 L 352.7 72.504 L 352.7 40.804 L 383.5 40.804 L 383.5 72.504 L 397.6 72.504 Z M 458.4 72.504 L 458.4 61.004 L 431.1 61.004 A 6.989 6.989 0 0 1 428.701 56.46 C 428.554 55.53 428.5 54.487 428.5 53.304 L 428.5 40.704 L 455.9 40.704 L 455.9 29.604 L 428.5 29.604 L 428.5 13.404 L 456.9 13.404 L 456.9 1.904 L 414.4 1.904 L 414.4 54.804 C 414.4 63.011 416.476 67.638 419.901 70.867 A 19.316 19.316 0 0 0 421.9 72.504 L 458.4 72.504 Z M 498.4 31.504 L 493 29.104 C 488.754 27.228 483.923 24.864 483.802 19.799 A 8.17 8.17 0 0 1 483.8 19.604 C 483.8 16.225 485.777 11.976 492.191 11.076 A 18.784 18.784 0 0 1 494.8 10.904 A 26.896 26.896 0 0 1 504.318 12.615 A 25.783 25.783 0 0 1 509.4 15.204 L 513.7 4.504 A 35.756 35.756 0 0 0 500.21 0.318 A 46.464 46.464 0 0 0 494.8 0.004 A 30.907 30.907 0 0 0 483.661 1.953 A 20.114 20.114 0 0 0 470 21.004 A 20.644 20.644 0 0 0 471.12 27.992 C 472.967 33.177 476.955 36.563 481.97 39.22 A 56.943 56.943 0 0 0 486.4 41.304 L 491.9 43.604 C 496.4 45.504 501.4 47.904 501.4 53.604 C 501.4 58.193 498.741 60.945 494.835 62.196 A 18.939 18.939 0 0 1 489.1 63.004 A 25.687 25.687 0 0 1 486.555 62.874 C 483.204 62.54 479.853 61.587 477.001 60.317 A 24.807 24.807 0 0 1 473 58.104 L 468.9 69.104 A 35.494 35.494 0 0 0 474.364 71.697 C 478.283 73.17 483.019 74.204 488.4 74.204 A 34.302 34.302 0 0 0 504.645 70.57 C 510.988 67.126 515.3 61.07 515.3 51.704 A 19.243 19.243 0 0 0 514.098 44.743 C 512.204 39.803 508.24 36.549 503.437 33.938 A 67.16 67.16 0 0 0 498.4 31.504 Z M 121.7 72.304 L 121.1 63.004 A 2.596 2.596 0 0 1 120.658 63.209 C 120.156 63.392 119.5 63.504 118.9 63.504 C 116.824 63.504 115.319 62.608 110.708 55.525 A 182.455 182.455 0 0 1 109.1 53.004 C 106.43 48.784 103.463 43.599 102.053 41.155 A 147.662 147.662 0 0 0 101.5 40.204 A 21.321 21.321 0 0 0 111.424 35.468 C 115.098 32.228 117.3 27.608 117.3 21.904 A 21.405 21.405 0 0 0 116.077 14.417 C 112.085 3.648 99.025 1.904 87.5 1.904 L 65.9 1.904 L 65.9 72.504 L 80 72.504 L 80 43.704 L 85.6 43.704 A 4.459 4.459 0 0 1 87.65 44.113 C 88.385 44.476 89.117 45.144 89.867 46.351 A 13.116 13.116 0 0 1 90.3 47.104 A 359.241 359.241 0 0 0 91.25 48.936 C 93.163 52.604 96.003 57.933 98.2 61.904 A 59.615 59.615 0 0 0 99.285 63.827 C 103.082 70.262 106.559 72.863 112.359 73.252 A 24.549 24.549 0 0 0 114 73.304 C 116.482 73.304 118.492 73.068 120.797 72.527 A 40.181 40.181 0 0 0 121.7 72.304 Z M 326.4 68.804 L 322.4 57.904 C 319.398 59.906 315.282 61.559 310.634 62.053 A 26.823 26.823 0 0 1 307.8 62.204 A 20.724 20.724 0 0 1 289.713 51.923 C 288.091 49.184 286.934 45.909 286.412 42.109 A 34.53 34.53 0 0 1 286.1 37.404 C 286.1 29.461 288.021 23.396 291.272 19.187 A 18.766 18.766 0 0 1 306.7 12.004 A 26.408 26.408 0 0 1 308.616 12.074 A 28.453 28.453 0 0 1 321.5 16.304 L 326.3 4.704 C 322.43 2.579 317.697 0.973 311.881 0.322 A 52.818 52.818 0 0 0 306 0.004 A 35.386 35.386 0 0 0 290.321 3.405 C 280.287 8.304 274.134 18.047 272.179 29.683 A 50.256 50.256 0 0 0 271.5 38.004 A 42.034 42.034 0 0 0 274.083 53.02 A 33.052 33.052 0 0 0 306.1 74.204 C 311.593 74.204 317.256 72.958 322.024 70.978 A 34.768 34.768 0 0 0 326.4 68.804 Z M 165.8 1.804 L 149.1 1.804 A 162.956 162.956 0 0 0 129.993 49.437 A 295.354 295.354 0 0 0 125.3 72.504 L 139.4 72.504 C 140.3 66.504 141.5 60.304 143 54.104 L 170.8 54.104 A 137.075 137.075 0 0 1 174.064 71.377 A 145.907 145.907 0 0 1 174.2 72.504 L 189.8 72.504 A 346.944 346.944 0 0 0 186.689 56.692 A 176.663 176.663 0 0 0 165.8 1.804 Z M 39.4 33.804 L 39.4 33.604 C 45 32.504 50.8 26.904 50.8 19.604 A 17.89 17.89 0 0 0 49.402 12.313 C 45.785 4.11 35.69 1.946 25.595 1.905 A 72.652 72.652 0 0 0 25.3 1.904 L 0 1.904 L 0 72.504 L 24.3 72.504 A 58.8 58.8 0 0 0 29.327 72.296 C 41.214 71.273 53.1 66.192 53.1 50.604 A 19.536 19.536 0 0 0 51.989 43.905 C 50.818 40.68 48.803 38.201 46.34 36.488 A 16.01 16.01 0 0 0 39.4 33.804 Z M 168.7 43.404 L 145.1 43.404 A 153.562 153.562 0 0 1 155.009 16.079 A 124.509 124.509 0 0 1 156.8 12.504 L 157 12.504 C 161.9 22.004 165.7 32.604 168.7 43.404 Z M 23.5 61.804 L 14.1 61.804 L 14.1 40.404 L 23.4 40.404 C 30.242 40.404 37.427 41.857 38.471 48.559 A 11.33 11.33 0 0 1 38.6 50.304 C 38.6 58.36 33.798 61.357 25.545 61.757 A 42.336 42.336 0 0 1 23.5 61.804 Z M 88.5 33.204 L 80 33.204 L 80 12.904 L 87.7 12.904 A 46.536 46.536 0 0 1 90.735 12.994 C 96.717 13.386 102.7 15.273 102.7 22.704 C 102.7 31.204 95.1 33.204 88.5 33.204 Z M 22.9 30.204 L 14.1 30.204 L 14.1 12.704 L 22.2 12.704 A 45.573 45.573 0 0 1 27.794 12.997 C 33.081 13.66 36.443 15.597 36.937 20.257 A 11.835 11.835 0 0 1 37 21.504 A 8.78 8.78 0 0 1 36.257 25.26 C 34.798 28.384 31.285 29.68 26.561 30.069 A 44.929 44.929 0 0 1 22.9 30.204 Z" vector-effect="non-scaling-stroke"/></g></svg>